<?xml version="1.0" encoding="UTF-8"?>
<svg id="Capa_1" xmlns="http://www.w3.org/2000/svg" version="1.1" viewBox="0 0 183.33 29.83">
  <!-- Generator: Adobe Illustrator 29.6.1, SVG Export Plug-In . SVG Version: 2.1.1 Build 9)  -->
  <defs>
    <style>
      .st0 {
        fill: #6f00ff;
      }
    </style>
  </defs>
  <path class="st0" d="M35.47,29.83c-1.62,0-3.07-.28-4.34-.83-1.27-.55-2.28-1.36-3.03-2.43-.75-1.07-1.13-2.37-1.13-3.9s.37-2.86,1.13-3.88c.75-1.03,1.78-1.8,3.08-2.32,1.3-.52,2.78-.78,4.43-.78h6.89v-1.47c0-1.32-.4-2.37-1.19-3.17-.8-.8-2.02-1.19-3.67-1.19s-2.86.38-3.72,1.15c-.86.77-1.42,1.76-1.7,2.99l-4.41-1.42c.37-1.22.96-2.33,1.77-3.33.81-.99,1.89-1.8,3.24-2.41,1.35-.61,2.97-.92,4.87-.92,2.94,0,5.25.75,6.94,2.25,1.68,1.5,2.53,3.63,2.53,6.38v9.33c0,.92.43,1.38,1.29,1.38h1.93v3.95h-3.54c-1.07,0-1.95-.28-2.62-.83-.67-.55-1.01-1.3-1.01-2.25v-.14h-.69c-.25.46-.61,1-1.1,1.61-.49.61-1.21,1.14-2.16,1.59-.95.44-2.21.67-3.77.67ZM36.16,25.93c1.9,0,3.43-.54,4.59-1.63,1.16-1.09,1.75-2.58,1.75-4.48v-.46h-6.61c-1.26,0-2.27.27-3.03.8-.77.54-1.15,1.32-1.15,2.37s.4,1.87,1.19,2.48c.8.61,1.88.92,3.26.92Z"/>
  <path class="st0" d="M53.8,29.19V5.99h4.64v2.66h.73c.37-.95.96-1.65,1.77-2.09.81-.44,1.81-.67,3.01-.67h2.71v4.27h-2.89c-1.53,0-2.79.42-3.77,1.26-.98.84-1.47,2.14-1.47,3.88v13.87h-4.73Z"/>
  <path class="st0" d="M70.42,29.19V6.27h4.64v2.66h.73c.43-.8,1.12-1.5,2.07-2.11.95-.61,2.24-.92,3.86-.92s3.04.34,4.07,1.03c1.03.69,1.8,1.57,2.32,2.64h.73c.52-1.04,1.28-1.91,2.27-2.62.99-.7,2.41-1.06,4.25-1.06,1.47,0,2.77.3,3.9.9,1.13.6,2.04,1.49,2.71,2.66.67,1.18,1.01,2.64,1.01,4.39v15.34h-4.73v-14.98c0-1.38-.38-2.44-1.13-3.19-.75-.75-1.81-1.13-3.19-1.13-1.47,0-2.65.48-3.54,1.42-.89.95-1.33,2.31-1.33,4.09v13.78h-4.73v-14.98c0-1.38-.38-2.44-1.13-3.19-.75-.75-1.81-1.13-3.19-1.13-1.47,0-2.65.48-3.54,1.42-.89.95-1.33,2.31-1.33,4.09v13.78h-4.73Z"/>
  <path class="st0" d="M119.02,29.83c-2.3,0-4.3-.48-6.02-1.45-1.72-.96-3.05-2.33-4.02-4.09-.96-1.76-1.45-3.8-1.45-6.13v-.55c0-2.36.47-4.42,1.42-6.18.95-1.76,2.27-3.12,3.97-4.09,1.7-.96,3.67-1.45,5.9-1.45s4.08.48,5.72,1.45c1.64.96,2.92,2.3,3.84,4.02.92,1.72,1.38,3.72,1.38,6.02v1.79h-17.41c.06,1.99.73,3.58,2,4.75,1.27,1.18,2.86,1.77,4.75,1.77,1.78,0,3.12-.4,4.02-1.19.9-.8,1.6-1.71,2.09-2.76l3.9,2.02c-.43.86-1.05,1.76-1.86,2.71-.81.95-1.88,1.75-3.19,2.39-1.32.64-3,.96-5.05.96ZM112.41,15.55h12.54c-.12-1.71-.73-3.05-1.84-4.02-1.1-.96-2.54-1.45-4.32-1.45s-3.22.48-4.34,1.45c-1.12.96-1.8,2.3-2.04,4.02Z"/>
  <path class="st0" d="M134.32,29.19V6.27h4.64v3.4h.73c.43-.92,1.19-1.78,2.3-2.57,1.1-.8,2.74-1.19,4.92-1.19,1.71,0,3.24.38,4.57,1.15,1.33.77,2.38,1.85,3.15,3.24.77,1.39,1.15,3.07,1.15,5.03v13.87h-4.73v-13.5c0-1.96-.49-3.41-1.47-4.34-.98-.93-2.33-1.4-4.04-1.4-1.96,0-3.53.64-4.71,1.93-1.18,1.29-1.77,3.15-1.77,5.6v11.71h-4.73Z"/>
  <path class="st0" d="M168.45,29.83c-1.62,0-3.07-.28-4.34-.83-1.27-.55-2.28-1.36-3.03-2.43-.75-1.07-1.13-2.37-1.13-3.9s.37-2.86,1.13-3.88c.75-1.03,1.78-1.8,3.08-2.32,1.3-.52,2.78-.78,4.43-.78h6.89v-1.47c0-1.32-.4-2.37-1.19-3.17-.8-.8-2.02-1.19-3.67-1.19s-2.86.38-3.72,1.15c-.86.77-1.42,1.76-1.7,2.99l-4.41-1.42c.37-1.22.96-2.33,1.77-3.33.81-.99,1.89-1.8,3.24-2.41,1.35-.61,2.97-.92,4.87-.92,2.94,0,5.25.75,6.94,2.25,1.68,1.5,2.53,3.63,2.53,6.38v9.33c0,.92.43,1.38,1.29,1.38h1.93v3.95h-3.54c-1.07,0-1.95-.28-2.62-.83-.67-.55-1.01-1.3-1.01-2.25v-.14h-.69c-.25.46-.61,1-1.1,1.61-.49.61-1.21,1.14-2.16,1.59-.95.44-2.21.67-3.77.67ZM169.14,25.93c1.9,0,3.43-.54,4.59-1.63,1.16-1.09,1.75-2.58,1.75-4.48v-.46h-6.61c-1.26,0-2.27.27-3.03.8-.77.54-1.15,1.32-1.15,2.37s.4,1.87,1.19,2.48c.8.61,1.88.92,3.26.92Z"/>
  <g>
    <path class="st0" d="M17.26,6.77c.56-.56,1.31-.87,2.1-.87h5.33s-11.97,11.97-11.97,11.97l11.97,11.97h-5.33c-.79,0-1.54-.31-2.1-.87l-11.1-11.1,11.1-11.1Z"/>
    <path class="st0" d="M0,0l3.77,3.77c.56.56.87,1.31.87,2.1v15.69s-3.5,0-3.5,0C.51,21.56,0,21.05,0,20.42v-3.5S0,0,0,0Z"/>
  </g>
</svg>